<svg width="605" height="143" viewBox="0 0 605 143" fill="none" xmlns="http://www.w3.org/2000/svg">
<path d="M19.0005 113C17.3792 113 15.9712 112.445 14.7765 111.336C13.6672 110.141 13.1125 108.691 13.1125 106.984V19.048C13.1125 17.3413 13.6672 15.9333 14.7765 14.824C15.9712 13.6293 17.3792 13.032 19.0005 13.032C20.7072 13.032 22.1152 13.6293 23.2245 14.824C24.4192 15.9333 25.0165 17.3413 25.0165 19.048V101.224H72.8885C74.5098 101.224 75.9178 101.779 77.1125 102.888C78.3072 103.997 78.9045 105.405 78.9045 107.112C78.9045 108.733 78.3072 110.141 77.1125 111.336C75.9178 112.445 74.5098 113 72.8885 113H19.0005ZM101.135 113C99.3425 113 97.8918 112.445 96.7825 111.336C95.6732 110.227 95.1185 108.819 95.1185 107.112V48.872C95.1185 47.08 95.6732 45.672 96.7825 44.648C97.8918 43.5387 99.3425 42.984 101.135 42.984C102.841 42.984 104.249 43.5387 105.359 44.648C106.468 45.672 107.023 47.08 107.023 48.872V107.112C107.023 108.819 106.468 110.227 105.359 111.336C104.249 112.445 102.841 113 101.135 113ZM101.007 30.824C98.8732 30.824 97.0385 30.056 95.5025 28.52C93.9665 26.984 93.1985 25.1067 93.1985 22.888C93.1985 20.6693 93.9665 18.8347 95.5025 17.384C97.1238 15.848 99.0012 15.08 101.135 15.08C103.183 15.08 104.975 15.848 106.511 17.384C108.132 18.8347 108.943 20.6693 108.943 22.888C108.943 25.1067 108.175 26.984 106.639 28.52C105.103 30.056 103.225 30.824 101.007 30.824ZM155.391 112.872C152.916 112.872 151.039 111.592 149.759 109.032L122.239 50.664C121.556 49.2987 121.471 47.976 121.983 46.696C122.495 45.416 123.519 44.4347 125.055 43.752C126.335 43.0693 127.657 42.984 129.023 43.496C130.388 43.9227 131.412 44.776 132.095 46.056L158.207 102.376H152.447L178.175 46.056C178.857 44.6907 179.924 43.7947 181.375 43.368C182.825 42.9413 184.276 43.0267 185.727 43.624C187.092 44.3067 188.031 45.3307 188.543 46.696C189.055 47.976 188.969 49.256 188.287 50.536L160.895 109.032C159.7 111.592 157.865 112.872 155.391 112.872ZM231.97 113.512C224.887 113.512 218.615 112.019 213.154 109.032C207.778 105.96 203.554 101.779 200.482 96.488C197.41 91.112 195.874 84.968 195.874 78.056C195.874 71.0587 197.324 64.9147 200.226 59.624C203.127 54.248 207.138 50.0667 212.258 47.08C217.378 44.008 223.308 42.472 230.05 42.472C236.62 42.472 242.295 43.9653 247.074 46.952C251.852 49.8533 255.522 53.9067 258.082 59.112C260.642 64.232 261.922 70.1627 261.922 76.904C261.922 78.3547 261.41 79.592 260.386 80.616C259.447 81.5547 258.167 82.024 256.546 82.024H203.938V72.552H256.674L251.426 76.264C251.34 71.7413 250.444 67.688 248.738 64.104C247.031 60.52 244.599 57.704 241.442 55.656C238.284 53.608 234.487 52.584 230.05 52.584C225.186 52.584 220.962 53.6933 217.378 55.912C213.879 58.1307 211.191 61.16 209.314 65C207.436 68.84 206.498 73.192 206.498 78.056C206.498 82.92 207.564 87.272 209.698 91.112C211.916 94.8667 214.903 97.8533 218.658 100.072C222.498 102.291 226.935 103.4 231.97 103.4C234.7 103.4 237.516 102.888 240.418 101.864C243.404 100.84 245.751 99.6453 247.458 98.28C248.652 97.3413 249.932 96.872 251.298 96.872C252.663 96.7867 253.858 97.1707 254.882 98.024C256.162 99.2187 256.844 100.541 256.93 101.992C257.015 103.357 256.418 104.552 255.138 105.576C252.236 107.88 248.61 109.8 244.258 111.336C239.991 112.787 235.895 113.512 231.97 113.512ZM384.175 113C382.553 113 381.145 112.445 379.951 111.336C378.756 110.141 378.159 108.691 378.159 106.984V13.032H390.191V106.984C390.191 108.691 389.636 110.141 388.527 111.336C387.417 112.445 385.967 113 384.175 113ZM349.487 24.04C347.865 24.04 346.543 23.528 345.519 22.504C344.495 21.48 343.983 20.1573 343.983 18.536C343.983 16.9147 344.495 15.592 345.519 14.568C346.543 13.544 347.865 13.032 349.487 13.032H418.863C420.569 13.032 421.935 13.544 422.959 14.568C423.983 15.592 424.495 16.9147 424.495 18.536C424.495 20.1573 423.983 21.48 422.959 22.504C421.935 23.528 420.569 24.04 418.863 24.04H349.487ZM451.22 113.512C444.137 113.512 437.865 112.019 432.404 109.032C427.028 105.96 422.804 101.779 419.732 96.488C416.66 91.112 415.124 84.968 415.124 78.056C415.124 71.0587 416.574 64.9147 419.476 59.624C422.377 54.248 426.388 50.0667 431.508 47.08C436.628 44.008 442.558 42.472 449.3 42.472C455.87 42.472 461.545 43.9653 466.324 46.952C471.102 49.8533 474.772 53.9067 477.332 59.112C479.892 64.232 481.172 70.1627 481.172 76.904C481.172 78.3547 480.66 79.592 479.636 80.616C478.697 81.5547 477.417 82.024 475.796 82.024H423.188V72.552H475.924L470.676 76.264C470.59 71.7413 469.694 67.688 467.988 64.104C466.281 60.52 463.849 57.704 460.692 55.656C457.534 53.608 453.737 52.584 449.3 52.584C444.436 52.584 440.212 53.6933 436.628 55.912C433.129 58.1307 430.441 61.16 428.564 65C426.686 68.84 425.748 73.192 425.748 78.056C425.748 82.92 426.814 87.272 428.948 91.112C431.166 94.8667 434.153 97.8533 437.908 100.072C441.748 102.291 446.185 103.4 451.22 103.4C453.95 103.4 456.766 102.888 459.668 101.864C462.654 100.84 465.001 99.6453 466.708 98.28C467.902 97.3413 469.182 96.872 470.548 96.872C471.913 96.7867 473.108 97.1707 474.132 98.024C475.412 99.2187 476.094 100.541 476.18 101.992C476.265 103.357 475.668 104.552 474.388 105.576C471.486 107.88 467.86 109.8 463.508 111.336C459.241 112.787 455.145 113.512 451.22 113.512ZM542.982 113C542.043 113 541.232 112.872 540.55 112.616C539.867 112.275 539.184 111.677 538.502 110.824L516.102 83.432L511.878 79.336L489.606 52.2C488.496 51.0053 487.942 49.6827 487.942 48.232C487.942 46.7813 488.368 45.544 489.222 44.52C490.075 43.496 491.355 42.984 493.062 42.984C494.854 42.984 496.347 43.624 497.542 44.904L519.302 71.528L522.63 74.6L546.566 104.04C547.76 105.491 548.315 106.899 548.229 108.264C548.144 109.629 547.59 110.781 546.566 111.72C545.627 112.573 544.432 113 542.982 113ZM493.446 113C491.824 113 490.544 112.531 489.606 111.592C488.752 110.568 488.326 109.373 488.326 108.008C488.326 106.557 488.838 105.149 489.862 103.784L512.39 75.624L518.79 84.456L497.542 111.208C496.518 112.403 495.152 113 493.446 113ZM524.422 79.976L516.614 72.808L537.734 45.16C538.416 44.3067 539.099 43.752 539.782 43.496C540.55 43.1547 541.403 42.984 542.342 42.984C544.048 42.984 545.328 43.5387 546.182 44.648C547.035 45.672 547.419 46.9093 547.334 48.36C547.334 49.8107 546.822 51.2187 545.798 52.584L524.422 79.976ZM591.073 113C586.721 113 582.795 111.933 579.297 109.8C575.798 107.581 573.067 104.637 571.105 100.968C569.142 97.2133 568.161 92.9467 568.161 88.168V26.6C568.161 24.8933 568.673 23.4853 569.697 22.376C570.806 21.2667 572.214 20.712 573.921 20.712C575.627 20.712 577.035 21.2667 578.145 22.376C579.254 23.4853 579.809 24.8933 579.809 26.6V88.168C579.809 92.008 580.875 95.1653 583.009 97.64C585.142 100.115 587.83 101.352 591.073 101.352H595.041C596.491 101.352 597.686 101.907 598.625 103.016C599.649 104.125 600.161 105.533 600.161 107.24C600.161 108.947 599.521 110.355 598.241 111.464C597.046 112.488 595.467 113 593.505 113H591.073ZM561.249 55.656C559.713 55.656 558.433 55.1867 557.409 54.248C556.385 53.3093 555.873 52.1147 555.873 50.664C555.873 49.128 556.385 47.8907 557.409 46.952C558.433 46.0133 559.713 45.544 561.249 45.544H592.097C593.633 45.544 594.913 46.0133 595.937 46.952C596.961 47.8907 597.473 49.128 597.473 50.664C597.473 52.1147 596.961 53.3093 595.937 54.248C594.913 55.1867 593.633 55.656 592.097 55.656H561.249Z" fill="#D9D9D9"/>
<circle cx="310" cy="73" r="8" fill="#D9D9D9"/>
</svg>
