<svg width="581" height="101" viewBox="0 0 581 101" fill="none" xmlns="http://www.w3.org/2000/svg">
<path d="M4.7025 100C3.6785 100 2.7825 99.6587 2.0145 98.976C1.2465 98.208 0.8625 97.2693 0.8625 96.16V3.87199C0.8625 2.76266 1.2465 1.86666 2.0145 1.184C2.7825 0.415998 3.6785 0.0319977 4.7025 0.0319977C5.81183 0.0319977 6.70783 0.415998 7.3905 1.184C8.1585 1.86666 8.5425 2.76266 8.5425 3.87199V93.088H61.1505C62.3452 93.088 63.2838 93.4293 63.9665 94.112C64.6492 94.7093 64.9905 95.52 64.9905 96.544C64.9905 97.568 64.6492 98.4213 63.9665 99.104C63.2838 99.7013 62.3452 100 61.1505 100H4.7025ZM86.1075 100C84.9982 100 84.0595 99.6587 83.2915 98.976C82.6088 98.208 82.2675 97.2693 82.2675 96.16V33.824C82.2675 32.6293 82.6088 31.6907 83.2915 31.008C84.0595 30.3253 84.9982 29.984 86.1075 29.984C87.3022 29.984 88.2408 30.3253 88.9235 31.008C89.6062 31.6907 89.9475 32.6293 89.9475 33.824V96.16C89.9475 97.2693 89.6062 98.208 88.9235 98.976C88.2408 99.6587 87.3022 100 86.1075 100ZM85.9795 15.264C84.3582 15.264 82.9502 14.7093 81.7555 13.6C80.6462 12.4053 80.0915 10.9547 80.0915 9.24799C80.0915 7.28533 80.6888 5.83466 81.8835 4.896C83.1635 3.87199 84.5715 3.35999 86.1075 3.35999C87.5582 3.35999 88.8808 3.87199 90.0755 4.896C91.3555 5.83466 91.9955 7.28533 91.9955 9.24799C91.9955 10.9547 91.3982 12.4053 90.2035 13.6C89.0942 14.7093 87.6862 15.264 85.9795 15.264ZM139.647 100.128C138.025 100.128 136.831 99.232 136.062 97.44L106.879 34.976C106.537 34.0373 106.537 33.1413 106.879 32.288C107.22 31.3493 107.86 30.6667 108.799 30.24C109.737 29.8133 110.633 29.7707 111.487 30.112C112.425 30.4533 113.108 31.0933 113.535 32.032L142.207 93.984H137.471L165.631 31.904C166.057 30.9653 166.74 30.3253 167.679 29.984C168.703 29.6427 169.684 29.6853 170.623 30.112C171.561 30.5387 172.201 31.2213 172.543 32.16C172.969 33.0133 172.969 33.9093 172.543 34.848L143.743 97.44C142.889 99.232 141.524 100.128 139.647 100.128ZM215.309 100.64C208.567 100.64 202.551 99.1467 197.261 96.16C192.055 93.088 187.959 88.864 184.973 83.488C181.986 78.112 180.493 71.968 180.493 65.056C180.493 58.0587 181.901 51.9147 184.717 46.624C187.533 41.248 191.415 37.024 196.365 33.952C201.314 30.88 206.989 29.344 213.389 29.344C219.703 29.344 225.293 30.8373 230.157 33.824C235.021 36.7253 238.818 40.7787 241.549 45.984C244.279 51.104 245.645 57.0347 245.645 63.776C245.645 64.8853 245.303 65.7813 244.621 66.464C243.938 67.0613 243.042 67.36 241.933 67.36H185.613V60.704H243.981L238.349 64.928C238.519 59.3813 237.581 54.4747 235.533 50.208C233.485 45.9413 230.541 42.6133 226.701 40.224C222.946 37.7493 218.509 36.512 213.389 36.512C208.525 36.512 204.173 37.7493 200.333 40.224C196.578 42.6133 193.591 45.9413 191.373 50.208C189.239 54.4747 188.173 59.424 188.173 65.056C188.173 70.6027 189.325 75.5093 191.628 79.776C193.933 84.0427 197.133 87.4133 201.229 89.888C205.325 92.2773 210.018 93.472 215.309 93.472C218.637 93.472 221.965 92.9173 225.293 91.808C228.706 90.6133 231.394 89.0773 233.357 87.2C234.039 86.5173 234.85 86.176 235.789 86.176C236.813 86.0907 237.666 86.3467 238.349 86.944C239.287 87.712 239.757 88.5653 239.757 89.504C239.842 90.4427 239.458 91.296 238.604 92.064C235.874 94.5387 232.29 96.5867 227.853 98.208C223.501 99.8293 219.319 100.64 215.309 100.64ZM367.413 100C366.303 100 365.365 99.6587 364.597 98.976C363.914 98.208 363.573 97.2693 363.573 96.16V0.0319977H371.253V96.16C371.253 97.2693 370.869 98.208 370.101 98.976C369.418 99.6587 368.522 100 367.413 100ZM331.189 6.94399C330.165 6.94399 329.311 6.64533 328.629 6.048C328.031 5.36533 327.733 4.512 327.733 3.488C327.733 2.464 328.031 1.65333 328.629 1.05599C329.311 0.373329 330.165 0.0319977 331.189 0.0319977H403.637C404.661 0.0319977 405.471 0.373329 406.069 1.05599C406.751 1.65333 407.093 2.464 407.093 3.488C407.093 4.512 406.751 5.36533 406.069 6.048C405.471 6.64533 404.661 6.94399 403.637 6.94399H331.189ZM432.309 100.64C425.567 100.64 419.551 99.1467 414.261 96.16C409.055 93.088 404.959 88.864 401.973 83.488C398.986 78.112 397.493 71.968 397.493 65.056C397.493 58.0587 398.901 51.9147 401.717 46.624C404.533 41.248 408.415 37.024 413.365 33.952C418.314 30.88 423.989 29.344 430.389 29.344C436.703 29.344 442.293 30.8373 447.157 33.824C452.021 36.7253 455.818 40.7787 458.549 45.984C461.279 51.104 462.645 57.0347 462.645 63.776C462.645 64.8853 462.303 65.7813 461.621 66.464C460.938 67.0613 460.042 67.36 458.933 67.36H402.613V60.704H460.981L455.349 64.928C455.519 59.3813 454.581 54.4747 452.533 50.208C450.485 45.9413 447.541 42.6133 443.701 40.224C439.946 37.7493 435.509 36.512 430.389 36.512C425.525 36.512 421.173 37.7493 417.333 40.224C413.578 42.6133 410.591 45.9413 408.373 50.208C406.239 54.4747 405.173 59.424 405.173 65.056C405.173 70.6027 406.325 75.5093 408.628 79.776C410.933 84.0427 414.133 87.4133 418.229 89.888C422.325 92.2773 427.018 93.472 432.309 93.472C435.637 93.472 438.965 92.9173 442.293 91.808C445.706 90.6133 448.394 89.0773 450.357 87.2C451.039 86.5173 451.85 86.176 452.789 86.176C453.813 86.0907 454.666 86.3467 455.349 86.944C456.287 87.712 456.757 88.5653 456.757 89.504C456.842 90.4427 456.458 91.296 455.604 92.064C452.874 94.5387 449.29 96.5867 444.853 98.208C440.501 99.8293 436.319 100.64 432.309 100.64ZM524.098 100C523.074 100 522.263 99.8293 521.666 99.488C521.068 99.0613 520.428 98.4213 519.746 97.568L497.729 68.384L494.53 65.952L472.13 36.384C471.447 35.5307 471.148 34.6347 471.234 33.696C471.319 32.672 471.703 31.8187 472.385 31.136C473.068 30.368 473.964 29.984 475.074 29.984C476.183 29.984 477.122 30.368 477.89 31.136L499.266 59.552L502.722 62.24L526.402 93.728C527.511 95.0933 527.895 96.2453 527.554 97.184C527.298 98.1227 526.786 98.848 526.018 99.36C525.25 99.7867 524.61 100 524.098 100ZM472.258 100C471.148 100 470.252 99.6587 469.57 98.976C468.887 98.2933 468.503 97.4827 468.418 96.544C468.332 95.52 468.631 94.5813 469.314 93.728L494.146 62.88L498.626 68.512L474.946 98.848C474.434 99.616 473.538 100 472.258 100ZM501.058 66.464L496.45 60.832L519.746 32.288C520.428 31.52 521.068 30.9653 521.666 30.624C522.348 30.1973 523.031 29.984 523.714 29.984C524.908 29.984 525.804 30.368 526.402 31.136C526.999 31.8187 527.298 32.672 527.298 33.696C527.298 34.6347 526.956 35.5307 526.274 36.384L501.058 66.464ZM573.505 100C568.811 99.9147 564.63 98.848 560.961 96.8C557.291 94.6667 554.433 91.7653 552.385 88.096C550.337 84.3413 549.312 80.1173 549.312 75.424V11.68C549.312 10.4853 549.654 9.54666 550.337 8.864C551.105 8.096 552.043 7.712 553.153 7.712C554.347 7.712 555.286 8.096 555.969 8.864C556.737 9.54666 557.121 10.4853 557.121 11.68V75.424C557.121 80.3733 558.657 84.4267 561.729 87.584C564.801 90.656 568.769 92.192 573.633 92.192H576.449C577.643 92.192 578.582 92.576 579.265 93.344C580.033 94.0267 580.417 94.9653 580.417 96.16C580.417 97.2693 580.033 98.208 579.265 98.976C578.582 99.6587 577.643 100 576.449 100H573.505ZM539.329 39.456C538.305 39.456 537.451 39.1573 536.769 38.56C536.171 37.8773 535.873 37.024 535.873 36C535.873 34.976 536.171 34.1653 536.769 33.568C537.451 32.8853 538.305 32.544 539.329 32.544H574.017C575.041 32.544 575.851 32.8853 576.449 33.568C577.131 34.1653 577.473 34.976 577.473 36C577.473 37.024 577.131 37.8773 576.449 38.56C575.851 39.1573 575.041 39.456 574.017 39.456H539.329Z" fill="#D9D9D9"/>
</svg>
