<svg width="597" height="143" viewBox="0 0 597 143" fill="none" xmlns="http://www.w3.org/2000/svg">
<path d="M16.7025 113C15.6785 113 14.7825 112.659 14.0145 111.976C13.2465 111.208 12.8625 110.269 12.8625 109.16V16.872C12.8625 15.7627 13.2465 14.8667 14.0145 14.184C14.7825 13.416 15.6785 13.032 16.7025 13.032C17.8118 13.032 18.7078 13.416 19.3905 14.184C20.1585 14.8667 20.5425 15.7627 20.5425 16.872V106.088H73.1505C74.3452 106.088 75.2838 106.429 75.9665 107.112C76.6492 107.709 76.9905 108.52 76.9905 109.544C76.9905 110.568 76.6492 111.421 75.9665 112.104C75.2838 112.701 74.3452 113 73.1505 113H16.7025ZM98.1075 113C96.9982 113 96.0595 112.659 95.2915 111.976C94.6088 111.208 94.2675 110.269 94.2675 109.16V46.824C94.2675 45.6293 94.6088 44.6907 95.2915 44.008C96.0595 43.3253 96.9982 42.984 98.1075 42.984C99.3022 42.984 100.241 43.3253 100.924 44.008C101.606 44.6907 101.948 45.6293 101.948 46.824V109.16C101.948 110.269 101.606 111.208 100.924 111.976C100.241 112.659 99.3022 113 98.1075 113ZM97.9795 28.264C96.3582 28.264 94.9502 27.7093 93.7555 26.6C92.6462 25.4053 92.0915 23.9547 92.0915 22.248C92.0915 20.2853 92.6888 18.8347 93.8835 17.896C95.1635 16.872 96.5715 16.36 98.1075 16.36C99.5582 16.36 100.881 16.872 102.076 17.896C103.356 18.8347 103.996 20.2853 103.996 22.248C103.996 23.9547 103.398 25.4053 102.204 26.6C101.094 27.7093 99.6862 28.264 97.9795 28.264ZM151.647 113.128C150.025 113.128 148.831 112.232 148.062 110.44L118.879 47.976C118.537 47.0373 118.537 46.1413 118.879 45.288C119.22 44.3493 119.86 43.6667 120.799 43.24C121.737 42.8133 122.633 42.7707 123.487 43.112C124.425 43.4533 125.108 44.0933 125.535 45.032L154.207 106.984H149.471L177.631 44.904C178.057 43.9653 178.74 43.3253 179.679 42.984C180.703 42.6427 181.684 42.6853 182.623 43.112C183.561 43.5387 184.201 44.2213 184.543 45.16C184.969 46.0133 184.969 46.9093 184.543 47.848L155.743 110.44C154.889 112.232 153.524 113.128 151.647 113.128ZM227.309 113.64C220.567 113.64 214.551 112.147 209.261 109.16C204.055 106.088 199.959 101.864 196.973 96.488C193.986 91.112 192.493 84.968 192.493 78.056C192.493 71.0587 193.901 64.9147 196.717 59.624C199.533 54.248 203.415 50.024 208.365 46.952C213.314 43.88 218.989 42.344 225.389 42.344C231.703 42.344 237.293 43.8373 242.157 46.824C247.021 49.7253 250.818 53.7787 253.549 58.984C256.279 64.104 257.645 70.0347 257.645 76.776C257.645 77.8853 257.303 78.7813 256.621 79.464C255.938 80.0613 255.042 80.36 253.933 80.36H197.613V73.704H255.981L250.349 77.928C250.519 72.3813 249.581 67.4747 247.533 63.208C245.485 58.9413 242.541 55.6133 238.701 53.224C234.946 50.7493 230.509 49.512 225.389 49.512C220.525 49.512 216.173 50.7493 212.333 53.224C208.578 55.6133 205.591 58.9413 203.373 63.208C201.239 67.4747 200.173 72.424 200.173 78.056C200.173 83.6027 201.325 88.5093 203.628 92.776C205.933 97.0427 209.133 100.413 213.229 102.888C217.325 105.277 222.018 106.472 227.309 106.472C230.637 106.472 233.965 105.917 237.293 104.808C240.706 103.613 243.394 102.077 245.357 100.2C246.039 99.5173 246.85 99.176 247.789 99.176C248.813 99.0907 249.666 99.3467 250.349 99.944C251.287 100.712 251.757 101.565 251.757 102.504C251.842 103.443 251.458 104.296 250.604 105.064C247.874 107.539 244.29 109.587 239.853 111.208C235.501 112.829 231.319 113.64 227.309 113.64ZM379.413 113C378.303 113 377.365 112.659 376.597 111.976C375.914 111.208 375.573 110.269 375.573 109.16V13.032H383.253V109.16C383.253 110.269 382.869 111.208 382.101 111.976C381.418 112.659 380.522 113 379.413 113ZM343.189 19.944C342.165 19.944 341.311 19.6453 340.629 19.048C340.031 18.3653 339.733 17.512 339.733 16.488C339.733 15.464 340.031 14.6533 340.629 14.056C341.311 13.3733 342.165 13.032 343.189 13.032H415.637C416.661 13.032 417.471 13.3733 418.069 14.056C418.751 14.6533 419.093 15.464 419.093 16.488C419.093 17.512 418.751 18.3653 418.069 19.048C417.471 19.6453 416.661 19.944 415.637 19.944H343.189ZM444.309 113.64C437.567 113.64 431.551 112.147 426.261 109.16C421.055 106.088 416.959 101.864 413.973 96.488C410.986 91.112 409.493 84.968 409.493 78.056C409.493 71.0587 410.901 64.9147 413.717 59.624C416.533 54.248 420.415 50.024 425.365 46.952C430.314 43.88 435.989 42.344 442.389 42.344C448.703 42.344 454.293 43.8373 459.157 46.824C464.021 49.7253 467.818 53.7787 470.549 58.984C473.279 64.104 474.645 70.0347 474.645 76.776C474.645 77.8853 474.303 78.7813 473.621 79.464C472.938 80.0613 472.042 80.36 470.933 80.36H414.613V73.704H472.981L467.349 77.928C467.519 72.3813 466.581 67.4747 464.533 63.208C462.485 58.9413 459.541 55.6133 455.701 53.224C451.946 50.7493 447.509 49.512 442.389 49.512C437.525 49.512 433.173 50.7493 429.333 53.224C425.578 55.6133 422.591 58.9413 420.373 63.208C418.239 67.4747 417.173 72.424 417.173 78.056C417.173 83.6027 418.325 88.5093 420.628 92.776C422.933 97.0427 426.133 100.413 430.229 102.888C434.325 105.277 439.018 106.472 444.309 106.472C447.637 106.472 450.965 105.917 454.293 104.808C457.706 103.613 460.394 102.077 462.357 100.2C463.039 99.5173 463.85 99.176 464.789 99.176C465.813 99.0907 466.666 99.3467 467.349 99.944C468.287 100.712 468.757 101.565 468.757 102.504C468.842 103.443 468.458 104.296 467.604 105.064C464.874 107.539 461.29 109.587 456.853 111.208C452.501 112.829 448.319 113.64 444.309 113.64ZM536.098 113C535.074 113 534.263 112.829 533.666 112.488C533.068 112.061 532.428 111.421 531.746 110.568L509.729 81.384L506.53 78.952L484.13 49.384C483.447 48.5307 483.148 47.6347 483.234 46.696C483.319 45.672 483.703 44.8187 484.385 44.136C485.068 43.368 485.964 42.984 487.074 42.984C488.183 42.984 489.122 43.368 489.89 44.136L511.266 72.552L514.722 75.24L538.402 106.728C539.511 108.093 539.895 109.245 539.554 110.184C539.298 111.123 538.786 111.848 538.018 112.36C537.25 112.787 536.61 113 536.098 113ZM484.258 113C483.148 113 482.252 112.659 481.57 111.976C480.887 111.293 480.503 110.483 480.418 109.544C480.332 108.52 480.631 107.581 481.314 106.728L506.146 75.88L510.626 81.512L486.946 111.848C486.434 112.616 485.538 113 484.258 113ZM513.058 79.464L508.45 73.832L531.746 45.288C532.428 44.52 533.068 43.9653 533.666 43.624C534.348 43.1973 535.031 42.984 535.714 42.984C536.908 42.984 537.804 43.368 538.402 44.136C538.999 44.8187 539.298 45.672 539.298 46.696C539.298 47.6347 538.956 48.5307 538.274 49.384L513.058 79.464ZM585.505 113C580.811 112.915 576.63 111.848 572.961 109.8C569.291 107.667 566.433 104.765 564.385 101.096C562.337 97.3413 561.312 93.1173 561.312 88.424V24.68C561.312 23.4853 561.654 22.5467 562.337 21.864C563.105 21.096 564.043 20.712 565.153 20.712C566.347 20.712 567.286 21.096 567.969 21.864C568.737 22.5467 569.121 23.4853 569.121 24.68V88.424C569.121 93.3733 570.657 97.4267 573.729 100.584C576.801 103.656 580.769 105.192 585.633 105.192H588.449C589.643 105.192 590.582 105.576 591.265 106.344C592.033 107.027 592.417 107.965 592.417 109.16C592.417 110.269 592.033 111.208 591.265 111.976C590.582 112.659 589.643 113 588.449 113H585.505ZM551.329 52.456C550.305 52.456 549.451 52.1573 548.769 51.56C548.171 50.8773 547.873 50.024 547.873 49C547.873 47.976 548.171 47.1653 548.769 46.568C549.451 45.8853 550.305 45.544 551.329 45.544H586.017C587.041 45.544 587.851 45.8853 588.449 46.568C589.131 47.1653 589.473 47.976 589.473 49C589.473 50.024 589.131 50.8773 588.449 51.56C587.851 52.1573 587.041 52.456 586.017 52.456H551.329Z" fill="#D9D9D9"/>
<circle cx="306" cy="73" r="8" fill="#D9D9D9"/>
</svg>
